# xmcd
#
# Track frame offsets:
#	150
#	16462
#	31567
#	47157
#	62347
#	83537
#	99925
#	117642
#	131587
#	145467
#	161420
#	178540
#	194042
#	208940
#	224832
#	241897
#	257017
#	272360
#
# Disc length: 3839 seconds
#
# Revision: 9
# Processed by: cddbd v1.5.2PL0 Copyright (c) Steve Scherf et al.
# Submitted via: audiograbber 1.83.01
#
DISCID=010efd12
DTITLE=_Verschiedene Interpreten - Die Super-Schlager des Jahres 96 [CD 2_2)
DYEAR=1996
DGENRE=Schlager
TTITLE0=Roger Whittaker - Wir sind jung (Oh Maria)
TTITLE1=Linda Feller - Weil du mich liebst
TTITLE2=Carrière - Du bist das Beste
TTITLE3=Wind - Mach' mich an - Coco Jamboo
TTITLE4=Peggy March - Viel zu nah am Himmel
TTITLE5=Tom Astor - Irgendwie wird's schon geh'n
TTITLE6=Bernhard Brink - Marie-Christine
TTITLE7=Roland Kaiser - The sun ain't gonna shine anymore - Gefühle gehen manch
TTITLE7=mal vorbei
TTITLE8=Leonard - Wie Mona Lisa
TTITLE9=Udo Jürgens - Heute beginnt der Rest deines Lebens
TTITLE10=Claudia Jung and Rosanna - Domani l'amore vincerà
TTITLE11=Truck Stop - Alabama Moon
TTITLE12=Petra Frey - Schon wieder du
TTITLE13=Moonbeats - Verloren im Regen
TTITLE14=Olaf Berger - Wenn du mich wirklich liebst
TTITLE15=Rex Gildo - Ich will, dass du willst
TTITLE16=Sandy Wagner - Macarena
TTITLE17=Andreas Martin - Tausend gute Gründe
EXTD=
EXTT0=
EXTT1=
EXTT2=
EXTT3=
EXTT4=
EXTT5=
EXTT6=
EXTT7=
EXTT8=
EXTT9=
EXTT10=
EXTT11=
EXTT12=
EXTT13=
EXTT14=
EXTT15=
EXTT16=
EXTT17=
PLAYORDER=
